<?xml version="1.0" standalone="no"?><!DOCTYPE svg PUBLIC "-//W3C//DTD SVG 1.1//EN" "http://www.w3.org/Graphics/SVG/1.1/DTD/svg11.dtd"><svg t="1573982973154" class="icon" viewBox="0 0 1024 1024" version="1.1" xmlns="http://www.w3.org/2000/svg" p-id="2080" width="64" height="64" xmlns:xlink="http://www.w3.org/1999/xlink"><defs><style type="text/css"></style></defs><path d="M519 127.9c-217.2 0-393.3 176.1-393.3 393.3s176 393.3 393.3 393.3 393.3-176.1 393.3-393.3S736.2 127.9 519 127.9zM739.3 523c0 9.9-8.1 18-18 18H361l144 144c7.3 7.3 7.3 19.2 0 26.5-7.3 7.3-19.2 7.3-26.5 0L305.6 538.6c-0.5-0.4-1-0.8-1.5-1.3-3.7-3.7-5.5-8.5-5.5-13.3 0-4.8 1.8-9.7 5.5-13.3 0.5-0.5 1-0.9 1.5-1.3L484 330.9c7.3-7.3 19.2-7.3 26.5 0 7.3 7.3 7.3 19.2 0 26.5L362.9 505h358.4c9.9 0 18 8.1 18 18z" fill="#e8bd5f" p-id="2081"></path></svg>