<?xml version="1.0" standalone="no"?><!DOCTYPE svg PUBLIC "-//W3C//DTD SVG 1.1//EN" "http://www.w3.org/Graphics/SVG/1.1/DTD/svg11.dtd"><svg t="1574999658191" class="icon" viewBox="0 0 1024 1024" version="1.1" xmlns="http://www.w3.org/2000/svg" p-id="21642" width="64" height="64" xmlns:xlink="http://www.w3.org/1999/xlink"><defs><style type="text/css"></style></defs><path d="M758.994905 361.822652v545.147958h-49.559742V64.46829H312.96234v842.503343H263.402597V361.822652H65.16772v594.7077H957.229782V361.822652h-198.234877zM213.843878 758.295476h-99.117439v-49.559743h99.117439v49.559743z m0-148.677181h-99.117439v-49.558719h99.117439v49.558719z m0-148.677181h-99.117439v-49.558719h99.117439v49.558719z m396.473847 446.030519H412.080801v-247.793596h198.236924v247.793596z m0-396.4718H412.080801v-49.558719h198.236924v49.558719z m0-148.677181H412.080801v-49.558719h198.236924v49.558719z m0-148.678204H412.080801v-49.558719h198.236924v49.558719z m297.353338 545.151028h-99.117438v-49.559743h99.117438v49.559743z m0-148.677181h-99.117438v-49.558719h99.117438v49.558719z m0-148.677181h-99.117438v-49.558719h99.117438v49.558719z" p-id="21643" fill="#999999"></path></svg>