<?xml version="1.0" standalone="no"?><!DOCTYPE svg PUBLIC "-//W3C//DTD SVG 1.1//EN" "http://www.w3.org/Graphics/SVG/1.1/DTD/svg11.dtd"><svg t="1574423267228" class="icon" viewBox="0 0 1704 1024" version="1.1" xmlns="http://www.w3.org/2000/svg" p-id="4945" xmlns:xlink="http://www.w3.org/1999/xlink" width="64" height="64"><defs><style type="text/css"></style></defs><path  d="M1257.198002 43.170952h-106.430121c-0.124772-23.457049-19.090045-42.422322-42.547094-42.547094H597.156574c-23.457049 0.124772-42.422322 19.090045-42.547094 42.547094h-106.430121c-46.914098 0-85.218959 38.304862-85.218959 85.218959 0 246.922871 146.98087 421.603022 340.751066 459.907884 2.121116 0 4.242232 0 6.363348 2.121116 6.363348 2.121116 12.726697 2.121116 19.214817 2.121116 46.914098 34.062629 78.855611 112.793469 78.855611 206.621664 0 19.214817-2.121116 121.77702-4.242232 138.87072l-185.285732-0.499086c-23.332277 0-42.547094 19.214817-42.547094 42.547094 0 23.332277 19.214817 42.547094 42.547094 42.547094h468.392348c23.332277 0 42.547094-19.214817 42.547094-42.547094 0-23.332277-19.214817-42.547094-42.547094-42.547094l-187.406848 0.499086c-2.121116-16.968929-4.242232-119.655903-4.242232-138.87072 0-93.703424 31.941513-172.434263 78.855611-206.621664 6.363348 0 12.726697-2.121116 19.214817-2.121116 2.121116 0 4.242232 0 6.363348-2.121116 193.645425-38.18009 340.501523-212.860241 340.501523-459.783112 1.996345-47.038869-36.308517-85.343731-83.097843-85.343731zM447.929816 128.389911h106.430121V149.725844c0 132.008286 29.820397 242.80541 76.609723 323.657365C520.297307 413.742415 447.929816 290.343365 447.929816 128.389911z m625.978799 344.993298c46.914098-80.851956 76.609723-191.64908 76.609723-323.657365V128.389911h106.430121c0.249543 161.953454-72.24272 285.352504-183.039844 344.993298z m0 0" fill="#999999" p-id="4946"></path></svg>