<?xml version="1.0" standalone="no"?><!DOCTYPE svg PUBLIC "-//W3C//DTD SVG 1.1//EN" "http://www.w3.org/Graphics/SVG/1.1/DTD/svg11.dtd"><svg t="1574999378466" class="icon" viewBox="0 0 1067 1024" version="1.1" xmlns="http://www.w3.org/2000/svg" p-id="8850" width="66.6875" height="64" xmlns:xlink="http://www.w3.org/1999/xlink"><defs><style type="text/css"></style></defs><path d="M1011.847619 448.342857h-0.228571v-0.571428H812.419048l0.114285 1.828571h-1.485714v-1.714286h-0.342857v-0.228571h-87.2l-0.114286-0.228572c35.314286-8.571429 90.742857-27.542857 153.371429-69.485714 110.742857-71.428571 106.171429-113.028571 106.171428-113.028571-4.114286-42.057143-51.2-56.114286-51.2-56.114286-1.371429-0.342857-2.742857-0.8-4.114285-1.142857l0.228571-0.342857-45.828571-13.028572s0.114286 0.114286 0.228571 0.457143c-61.828571-17.714286-96.914286-28.685714-109.828571-32.914286l-6.171429-2.285714c-6.4-2.171429-10.857143-5.714286-14.057143-9.6-0.228571-0.228571-0.457143-0.457143-0.571428-0.8-0.228571-0.342857-0.457143-0.571429-0.571429-0.914286-6.514286-9.371429-5.828571-19.771429-5.828571-19.771428l3.2-40.685714 18.171428-17.828572L805.790476 32.685714c10.285714-11.542857-2.857143-12.342857-2.857143-12.342857L634.47619 0 313.561905 342.971429c-28.114286 3.542857-43.885714 7.542857-43.885715 7.542857-4.571429 0.914286-8.114286 2.971429-10.857142 5.257143-8.342857 6.857143-9.828571 17.714286-9.828572 17.714285l-8.685714 49.485715c-0.685714 4.914286-3.428571 9.142857-4.342857 10.4-0.571429 0.342857-0.914286 0.8-1.371429 1.371428-2.742857 3.314286-3.657143 11.085714-3.657143 11.085714l-0.228571 1.257143-101.714286-0.342857-0.114286 0.914286h-37.028571v-0.8h-12.685714v0.8h-0.114286L78.247619 461.714286l-0.457143 6.514285V470.857143c0.114286 6.971429 1.828571 9.485714 1.828572 9.485714 3.085714 6.514286 2.514286 10.171429 2.514285 10.171429v17.142857l-0.114285 13.714286c-0.342857 4.914286-1.257143 9.142857-2.628572 12.8h-0.228571c-0.228571 1.257143-0.685714 2.4-1.142857 3.542857-1.828571 4-4 7.085714-6.285715 9.6-0.228571 0.228571-0.342857 0.457143-0.571428 0.571428l-1.371429 1.371429c-0.342857 0.342857-0.685714 0.571429-0.914286 0.8-0.8 0.685714-1.6 1.257143-2.4 1.828571h-0.342857c-0.228571 0.342857-0.571429 0.571429-0.8 0.8-4 2.628571-7.085714 3.542857-7.085714 3.542857l-36.685714 5.942858c-10.285714 2.628571-10.742857 14.057143-10.742857 14.057142v33.6h0.228571v0.914286l6.628571 1.142857v18.285715l3.657143 0.342857 34.285715 3.542857v2.742857s0.228571 2.285714 5.371428 2.285714h3.314286s4.571429 0.228571 4.571428-2.514285v-1.142858l10.285715 1.028572v5.142857h0.114285v0.342857l13.828572 0.914286 1.942857 0.114286c7.885714 0.685714 14.285714 2.285714 19.428571 4.571428 8 3.542857 16.914286 9.828571 20.8 20.914286h0.342858v0.114286l4 0.342857L151.390476 832.114286c0.914286 11.771429-4.685714 18.4-4.685714 18.4l1.828571 24.571428 0.571429 0.114286v0.571429l7.085714 2.171428-0.114286 0.114286c0 1.028571 2.628571 1.828571 6.628572 2.4v7.428571H159.390476c-0.457143-0.114286-0.8 0-0.8 0h-11.085714v5.828572h3.771428c5.142857 0 5.257143 6.171429 5.257143 6.171428l0.342857 5.714286c-1.257143 3.657143-1.828571 8.114286-1.257142 12.8 1.257143 10.971429 7.885714 19.2 15.085714 19.428571v0.114286l1.142857-0.114286H172.190476l16.457143-1.257142h0.685714c0.457143-0.114286 0.8-0.228571 1.257143-0.342858l11.085714-0.685714c6.514286 0 11.771429-7.885714 11.771429-18.857143 0-9.257143-5.142857-19.542857-11.657143-20.457143H187.619048c-1.028571-0.457143-2.171429-0.685714-3.2-0.685714H167.847619v0.114286H167.390476l-0.571428-1.714286H200.533333V888H186.47619v-7.771429c2.971429-0.571429 4.914286-1.371429 4.914286-2.171428 0-0.228571-0.114286-0.342857-0.342857-0.571429l8.8-1.485714 1.257143-23.885714s-5.142857-5.142857-4.571429-14.628572l13.828572-168.342857c3.428571 0.457143 5.257143-3.2 5.257143-3.2l1.6-2.514286L332.190476 675.428571v231.085715H326.247619l-0.342857 0.914285h0.114286c-0.571429 1.714286-2.514286 5.257143-10.4 5.714286v5.371429l2.628571 0.914285v20.457143c-1.257143 0.571429-2.742857 1.028571-4.685714 1.142857h-20.8-0.8s-0.342857 0-0.8 0.114286c-1.028571 0.228571-2.285714 0.8-2.971429 1.942857-0.114286 0.228571-0.228571 0.571429-0.342857 0.914286-0.114286 0.457143-0.114286 0.914286 0 1.485714l6.4 1.257143 29.257143 0.114286 6.057143 1.828571h-15.085715s-0.342857 0-0.8 0.228572c-1.028571 0.228571-2.285714 0.8-2.857142 1.942857v0.114286c-0.114286 0.228571-0.228571 0.571429-0.342858 0.914285-0.114286 0.457143-0.114286 0.914286 0 1.485715l6.4 1.257142 33.257143 0.228572 4.228572 1.257143h-14.057143-0.8s-0.342857 0-0.8 0.114285c-1.028571 0.228571-2.285714 0.8-2.971429 1.942858-0.114286 0.228571-0.228571 0.571429-0.342857 0.914285-0.114286 0.457143-0.114286 0.914286 0 1.485715l6.4 1.257142 32.914286 0.228572 17.6 5.142857 39.657143-3.771429v-4.914285l-3.085715 0.457143v-24.457143l4.571429-2.4v-0.8L521.67619 691.542857c3.314286 1.714286 6.742857 4.114286 9.828572 7.428572l0.571428 0.571428c0.571429 0.571429 1.028571 1.257143 1.6 1.942857 0.457143 0.571429 0.8 1.028571 1.142858 1.6 0.457143 0.571429 0.8 1.142857 1.142857 1.828572 0.228571 0.342857 0.342857 0.685714 0.571428 0.914285 1.257143 2.171429 2.285714 4.685714 3.2 7.314286h6.171429v0.114286h-0.457143L561.790476 913.142857s1.6 10.285714-5.371428 18.514286l3.314285 30.057143 11.885715 2.4-0.114286 0.114285c0 1.028571 2.628571 1.828571 6.628571 2.4v7.428572h-3.2v0.114286h-0.114285c-0.457143-0.114286-0.8-0.114286-0.8-0.114286h-11.085715v5.828571h3.771429c5.142857 0 5.257143 6.171429 5.257143 6.171429l0.342857 5.714286c-1.257143 3.657143-1.828571 8.114286-1.257143 12.685714 1.257143 10.971429 7.885714 19.2 15.085714 19.428571v0.114286l1.142857-0.114286H587.619048l16.571428-1.257143h0.685714c0.457143-0.114286 0.8-0.228571 1.257143-0.342857l11.085715-0.685714c6.514286 0 11.771429-7.885714 11.771428-18.857143 0-9.257143-5.142857-19.542857-11.657143-20.457143h-14.171428c-1.028571-0.457143-2.171429-0.685714-3.2-0.685714H583.390476v0.114286h-0.457143l-0.571428-1.6h33.714285v-5.942857h-14.057142v-7.771429c1.714286-0.342857 3.085714-0.685714 3.885714-1.142857l14.4-1.942857 1.828571-31.542857s-5.6-3.314286-4.914285-11.2l13.485714-206.742858 4.457143-0.228571s10.742857-34.285714 61.485714-39.2v-14.857143l26.857143-1.6v0.228572l35.542857-2.057143v-0.342857h0.457143v-20.228572h7.885714s-0.228571-2.285714 0.228572-5.485714c3.771429-21.828571 25.028571-22.171429 25.028571-22.171429l6.971429-0.8v-0.571428l7.771428-1.028572v0.457143l3.428572-0.457143v-10.285714l23.428571-1.6v10.285714s30.971429 0.685714 39.771429 23.085715c0.571429 1.485714 1.028571 3.085714 1.371428 4.8 0 0.114286 0 0.114286 0.114286 0.228571h4.914286v0.685714h0.571428l13.142857 170.514286s0 7.428571-4.114285 13.6l1.714285 25.142857h7.885715c0.342857 0.8 2.514286 1.485714 5.942857 2.057143V850.742857h-3.085715c-0.457143-0.114286-0.685714 0-0.685714 0h-10.057143v5.257143h3.428572c4.685714 0 4.8 5.6 4.8 5.6l0.342857 5.142857c-1.142857 3.314286-1.6 7.314286-1.142857 11.657143 1.142857 9.942857 7.2 17.485714 13.714285 17.6v0.114286l1.028572-0.114286H914.247619l14.971429-1.142857h0.571428c0.342857 0 0.685714-0.228571 1.142857-0.342857l10.057143-0.571429c5.942857 0 10.742857-7.2 10.742857-17.142857 0-8.342857-4.571429-17.828571-10.628571-18.628571h-12.914286c-1.028571-0.342857-1.942857-0.685714-2.971428-0.685715H910.247619v0.114286h-0.457143l-0.457143-1.485714H939.961905v-5.371429h-12.8v-7.085714c2.514286-0.457143 4.114286-1.142857 4.342857-1.828572h8l2.514286-23.542857s-6.171429-8.228571-4.914286-17.371428l9.142857-168.342857h4.914286s1.6-10.171429 11.428571-17.257143c4.457143-3.085714 10.742857-5.6 19.314286-6.514286h13.257143v-10.857143h-0.228572v-0.914286h13.257143l-0.114286-15.657142 3.771429-0.457143v-132.571429zM437.561905 692.571429s-0.8 3.085714 5.142857 4.228571l-17.942857 50.514286v-37.828572h0.914285v-24.114285l11.771429 1.257142 0.114286 5.942858z m-57.714286 13.142857v-25.257143l6.857143 0.685714v173.485714l-8 22.628572V705.714286h1.142857z m6.742857 160.457143v45.942857l-8-1.714286v-21.371429l8-22.857142z m-10.857143 43.657142l-4.114285-0.914285 4.114285-11.771429v12.685714z m46.171429 10.057143z m0-0.114285l-15.428572-3.314286 10.514286-0.571429V780.342857l4.914286-14.057143v153.485715z m-4.914286-150.4v-84.914286l3.771429 0.342857v24.685714h1.142857V755.428571l-4.914286 13.942858z m-42.514286-89.485715v25.828572h1.257143v179.771428l-8 22.514286-5.828571-1.257143V678.628571l12.571428 1.257143z m55.542858 247.085715c-1.714286-0.457143-3.542857-1.257143-5.142858-2.4V758.171429l21.6-61.142858h0.685715s8.571429 0.914286 8.914285-4.457142l0.114286-4.114286 20.457143 2.171428c10.742857 1.6 19.771429 1.6 19.771429 1.6l14.4-1.257142v-3.314286c2.171429 0.457143 4.228571 1.028571 6.171428 1.828571 0.342857 0.114286 0.685714 0.228571 1.028572 0.457143l-88 237.028572z" p-id="8851" fill="#999999"></path></svg>