<?xml version="1.0" standalone="no"?><!DOCTYPE svg PUBLIC "-//W3C//DTD SVG 1.1//EN" "http://www.w3.org/Graphics/SVG/1.1/DTD/svg11.dtd"><svg t="1575536656681" class="icon" viewBox="0 0 1024 1024" version="1.1" xmlns="http://www.w3.org/2000/svg" p-id="4470" width="64" height="64" xmlns:xlink="http://www.w3.org/1999/xlink"><defs><style type="text/css"></style></defs><path d="M512 1024C229.24 1024 0 794.76 0 512S229.24 0 512 0s512 229.24 512 512-229.24 512-512 512z m259.413-706.662A41.54 41.54 0 0 0 744.38 307.2c-12.015 0-22.938 5.086-30.31 13.346L467.49 591.462 314.027 457.865a45.67 45.67 0 0 0-30.038-11.196c-24.849 0.239-45.056 20.036-45.056 44.339 0 13.073 5.735 24.85 15.019 32.87l182.135 158.686c7.373 7.202 17.477 11.47 28.672 11.47 12.015 0 22.938-5.053 30.31-13.347l3.005-3.209L774.69 373.453a38.844 38.844 0 0 0-3.277-56.115z" p-id="4471" fill="#e8bd5f"></path></svg>